<svg xmlns="http://www.w3.org/2000/svg" viewBox="0 0 50 50" width="50" height="50" style="width: 100%; height: 100%; transform: translate3d(0px, 0px, 0px);" preserveAspectRatio="xMidYMid meet"><defs><clipPath id="__lottie_element_2"><rect width="50" height="50" x="0" y="0"></rect></clipPath></defs><g clip-path="url(#__lottie_element_2)"><g style="display: none;" transform="matrix(1,0,0,1,0,0)" opacity="1"><g opacity="1" transform="matrix(1,0,0,1,25.131999969482422,25)"><path stroke-linecap="round" stroke-linejoin="miter" fill-opacity="0" stroke-miterlimit="10" stroke="rgb(0,0,0)" stroke-opacity="1" stroke-width="4" d="M0 0"></path></g></g><g style="display: none;" transform="matrix(1,0,0,1,0,0)" opacity="1"><g opacity="1" transform="matrix(1,0,0,1,25.131999969482422,25)"><path stroke-linecap="round" stroke-linejoin="miter" fill-opacity="0" stroke-miterlimit="10" stroke="rgb(0,0,0)" stroke-opacity="1" stroke-width="4" d="M0 0"></path></g></g><g style="display: none;" transform="matrix(1,0,0,1,0,0)" opacity="1"><g opacity="1" transform="matrix(1,0,0,1,25.131999969482422,25)"><path stroke-linecap="round" stroke-linejoin="miter" fill-opacity="0" stroke-miterlimit="10" stroke="rgb(0,0,0)" stroke-opacity="1" stroke-width="4" d="M0 0"></path></g></g><g style="display: block;" transform="matrix(1,0,0,1,0,0)" opacity="1"><g opacity="1" transform="matrix(1,0,0,1,25.131999969482422,25)"><path stroke-linecap="round" stroke-linejoin="miter" fill-opacity="0" stroke-miterlimit="10" stroke="rgb(0,0,0)" stroke-opacity="1" stroke-width="4" d=" M-21.131999969482422,0 C-21.131999969482422,0 12.555000305175781,0 12.555000305175781,0 C16.83799934387207,0 20.59600067138672,-3.2300000190734863 20.85300064086914,-7.50600004196167 C21.131999969482422,-12.14799976348877 17.450000762939453,-16 12.868000030517578,-16 C12.868000030517578,-16 12.868000030517578,-16 12.868000030517578,-16"></path></g></g><g style="display: block;" transform="matrix(1,0,0,1,0,0)" opacity="1"><g opacity="1" transform="matrix(1,0,0,1,25.131999969482422,25)"><path stroke-linecap="round" stroke-linejoin="miter" fill-opacity="0" stroke-miterlimit="10" stroke="rgb(0,0,0)" stroke-opacity="1" stroke-width="4" d=" M-21.131999969482422,7 C-21.131999969482422,7 0.06700000166893005,7 0.06700000166893005,7 C3.6419999599456787,7 6.77400016784668,9.753999710083008 6.866000175476074,13.32800006866455 C6.934000015258789,15.967000007629395 5.428999900817871,18.26099967956543 3.2219998836517334,19.341999053955078"></path></g></g><g style="display: block;" transform="matrix(1,0,0,1,0,0)" opacity="1"><g opacity="1" transform="matrix(1,0,0,1,25.131999969482422,25)"><path stroke-linecap="round" stroke-linejoin="miter" fill-opacity="0" stroke-miterlimit="10" stroke="rgb(0,0,0)" stroke-opacity="1" stroke-width="4" d=" M-21.131999969482422,-7 C-21.131999969482422,-7 -9.932999610900879,-7 -9.932999610900879,-7 C-6.357999801635742,-7 -3.2260000705718994,-9.753999710083008 -3.134000062942505,-13.32800006866455 C-3.0399999618530273,-16.996999740600586 -5.985000133514404,-20 -9.631999969482422,-20 C-11.95199966430664,-20 -13.982000350952148,-18.7810001373291 -15.131999969482422,-16.952999114990234"></path></g></g></g></svg>